<!-- Created with Inkscape (http://www.inkscape.org/) -->
<svg id="svg2" xmlns:rdf="http://www.w3.org/1999/02/22-rdf-syntax-ns#" xmlns="http://www.w3.org/2000/svg" height="148.3" width="148.34" version="1.1" xmlns:cc="http://creativecommons.org/ns#" xmlns:xlink="http://www.w3.org/1999/xlink" xmlns:dc="http://purl.org/dc/elements/1.1/">
<metadata id="metadata7">
<rdf:RDF>
<cc:Work rdf:about="">
<dc:format>image/svg+xml</dc:format>
<dc:type rdf:resource="http://purl.org/dc/dcmitype/StillImage"/>
<dc:title/>
</cc:Work>
</rdf:RDF>
</metadata>
<g id="layer1" transform="translate(-247.31285,-228.49211)">
<g id="g3980" transform="matrix(0.85957328,0,0,0.85954838,237.91341,219.06187)">
<g id="g3982">
<defs id="defs3984">
<polyline id="XMLID_1_" points="0,0,0,194.44,194.44,194.44,194.44,0"/>
</defs>
<clipPath id="XMLID_3_">
<use id="use3988" xlink:href="#XMLID_1_" height="1" width="1" y="0" x="0"/>
</clipPath>
<path id="path3990" d="m97.219,183.51c47.659,0,86.29-38.636,86.29-86.285,0-47.658-38.631-86.294-86.29-86.294-47.653,0-86.284,38.636-86.284,86.294,0,47.649,38.63,86.285,86.284,86.285" clip-path="url(#XMLID_3_)" fill-rule="evenodd" clip-rule="evenodd" fill="#200e7d"/>
<path id="path3992" d="m82.157,88.9-3.305-0.71-9.733,9.497-0.01-3.301,0.207-0.719,0.212-0.591,0.192-0.71,0.211-1.675-0.359-0.403-0.979,0.374-0.804,0.034-0.241,0.237,0.015,0.354-0.211,0.261-0.207,0.354-0.853,0.315-0.798,0.113-0.438,0.458-0.34,0.379-0.458,0.139-0.315,0.596-0.552,0.236-0.128,0.502-0.458,0.139-0.448,0.601,0.02,0.478-0.557,0.498-0.463,0.364-0.68,0.384-0.212,0.592,0.183,2.758-6.481-0.62c1.221-0.778,2.319-1.547,3.24-2.493,0.729-1.581,1.487-2.251,2.788-3.142l1.586-1.483c0.94-0.96,2.709-2.478,3.847-3.177,0.764-0.856,0.961-1.743,2.005-2.433,0.966-0.641,1.586-1.921,1.976-2.793,0.275-1.34,0.625-1.877,2.098-2.207,0.552-0.892,1.335-0.724,1.877-0.418l0.345-0.375c1.01,0.144,1.162-0.394,1.955-0.428l1.183-0.183c0.837-0.039,2.438-0.364,2.95,0.448l0.581-0.024c0.438-0.399,1.02-0.168,1.517,0.049l0.183-0.434c0.945-0.646,1.108-0.887,2.217-1.187,1-0.192,0.861-0.345,1.118-1.325-0.37-0.916-0.025-2.813-1.995-2.729-0.783-0.798-1.039-1.281-1.384-2.049l-0.025-0.582-0.473,0.021-0.02-0.474c-0.374-0.443-0.197-0.788,0.188-1.182l0.227-0.236-0.015-0.354,0.453-0.139,0.231-0.482-0.079-1.861-0.266-0.236-1.158-0.178,0.483-1.222,1.813-0.192,0.615-0.054c1.039,0.985,0.956,1.596,1.138,3.015l0.458,0.463,0.922-0.315,0.625-0.354,0.641-0.709,0.217-0.231,0.832-0.035,0.231,0.212,0.478,0.113,1.178,0.291-0.02-0.34,0.685-0.39,1.645,0.153,0.231,0.246c0.66,1.345,2.104,1.733,3.394,2.408,0.783,0.359,1.463,0.773,2.276,1.074,0.324,0.892,0.408,0.615,0.989,1.147l0.276,0.911,0.246,0.586,0.502,0.552c0.301,1.926-0.073,3.753,0.552,5.615,0.227,0.66,0.532,1.049,1.522,1.33l0.482,0.798c0.301,1.162-0.104,2.817,0.744,3.477,0.246,0.636,0.542,1.231,0.798,1.857l0.468,0.547c1.182,0.374,2.892,0.896,4.128,0.517l0.201-0.827,1.395-0.162,0.015,0.443c1.005,0.783,0.906,1.015,1.502,2.029l0.089,2.009,0.384,0.917,0.03,0.699,0.261,0.241c1.049,0.128,2.222,0.192,3.521,0.192,0.488-0.178,1.251-0.65,1.227-1.128l0.655-1.084c1.566-0.301,1.039-0.621,2.068-1.015l0.68,0.049-0.167,0.853-0.931,0.398-0.119,0.37-0.654,0.177-0.231,0.67c-0.882,0.364-1.453,0.848-2.404,1.163l-0.448,0.359c-1.271,0.35-0.975,0.478-1.689,1.487-0.847-0.173-2.31-0.34-3.319-1.133-2.65-1.542-3.625-2.419-5.413-3.049l-0.976-0.896-0.778-0.527-0.212-0.605-0.403-0.458-0.616-0.158c-0.714-0.615-1.236-0.241-1.596-0.088,0.113,0.979,0.024,2.733,0.818,3.861,0.68,0.96,1.989,1.531,3.073,1.827,0.743,0.168,3.9,2.315,4.556,2.837,0.985,0.311,3.753,1.325,4.552,2.034,1.581,0.542,2.802,2.68,3.442,3.601,0.222,0.798,0.631,1.626,0.694,2.429l-0.537,0.054c-0.945-0.147-1.226-0.512-1.266-1.433l-0.487-0.438-0.482-0.286c-1.271-0.069-2.152-0.236-2.473,0.138-0.217,0.257-0.178,0.759,0.187,1.715,0.271,0.561,0.872,0.808,0.783,1.605-0.196,0.67-0.088,1.143-0.557,1.133-0.35-0.01-0.502-0.128-0.625-0.956-1.197-0.704-1.862-0.591-1.971,0.217-0.024,2.487,1.857,4,1.892,5.521-0.542-0.191-0.759-0.694-1.191-0.408l-0.828,0.152-1.285-0.192c-0.571-0.492-0.798-0.887-1.123-1.576-0.508-2.206-1.271-3.379-1.99-5.31-0.759-0.65-1.389-1.507-2.31-1.882-1.35-0.227-1.833-0.649-2.995-1.398-0.813,0.207-1.222,0.147-1.778-0.502-0.654-0.084-2.63-2.399-3.512-2.778l-2.345,0.104c-1.261-0.183-2.285-0.508-3.507-0.207-0.979-0.877-1.536-0.99-3.083-1.143-0.108-0.306-0.522-0.694-0.867-0.783l0.522-1.315c0.694-1.453,0.32-2.266,0.084-3.886-0.315-0.65,0.005-0.916-0.788-1.596-0.183-0.769-0.7-2.537-1.168-2.976-1.147-0.138-1.389,0.296-2.329,0.818l-0.87-0.202" clip-path="url(#XMLID_3_)" fill-rule="evenodd" clip-rule="evenodd" fill="#200e7d"/>
<path id="path3994" d="M95.066,93.717c-1.138-0.364-1.182-0.167-1.236-1.34l-0.256-0.827c0.138-0.832,0.231-1.094,0.621-1.783-0.946-0.866-1.222-2.748-1.448-3.871-1.67-0.527-1.65-0.729-2.527-2.005-1.187-0.143-2.256-0.507-2.319-2.024l-0.325-1.625,0.207-1.064-0.734-0.531c-0.246-0.503-0.591-0.927-1.093-0.961,0.118-1.147-0.197-2.448,0.659-3.482,0.725-2.098,0.927-3.329,1.576-4.413l2.108-0.094c0.02,0.887-0.231,1.369,1.015,2.438,0.275,0.241,0.473,0.522,0.734,0.773,0.034,0.808,0.275,1.881,0.936,2.413,0.275,0.744,0.694,1.345,1.029,2.068,0.222,1.291,0.414,1.67-0.118,2.813l0.266,0.587-0.227,0.231,1.503-0.286c1.231,0.212,2.394,0.591,3.659,0.641,0.714,0.689,0.429,1.689,0.931,2.31l-0.197,1.285-0.108,2.596c0.448,0.059,0.699,0.398,0.743,1.024l0.267,0.33-0.236,0.354,0.275,0.566c-0.178,0.566-0.492,0.96-1.251,1.227-0.892,0.413-1.744,0.872-2.625,1.29l0.02,0.463-1.849,0.897" clip-path="url(#XMLID_3_)" fill-rule="evenodd" clip-rule="evenodd" fill="#f7f619"/>
<polyline id="polyline3996" fill-rule="evenodd" clip-path="url(#XMLID_3_)" points="68.967,97.165,60.529,99.224,60.465,97.697,60.677,97.105,61.356,96.722,61.819,96.357,62.376,95.859,62.356,95.382,62.805,94.781,63.263,94.643,63.391,94.141,63.942,93.904,64.258,93.309,64.716,93.17,65.056,92.791,65.494,92.333,66.292,92.22,67.145,91.904,67.352,91.55,67.563,91.289,67.548,90.935,67.789,90.697,68.593,90.663,69.572,90.289,69.932,90.692,69.721,92.367,69.528,93.077,69.316,93.668,69.109,94.387,68.967,97.165" clip-rule="evenodd" fill="#f7f619"/>
<path id="path3998" d="m55.521,94.683c1.507-1.024,2.507-2.901,3.812-4.177,1.301-0.473,1.236-0.754,2.178-1.271,1.748-1.911,3.211-2.503,3.669-5.311,0.38-0.586,1.024-1.97,1.246-2.625,0.941-0.389,1.256-0.66,1.689-1.605,0.325-0.655,0.783-2.492,2.128-3.275,0.581-0.34,1.256-0.956,1.843-1.631,0.453-0.517,0.512-1.103,1.122-1.551,1.335-0.937,2.39-0.06,3.704-1.557l0.773-0.463,0.118-0.503,0.473-0.138c0.286-0.513,0.7-0.887,0.857-1.448,0.646-0.65,1.463-0.866,2.172-1.374l1.168,0.173,0.266,0.236,0.079,1.861-0.231,0.482-0.453,0.139,0.015,0.354-0.227,0.236c-0.385,0.394-0.562,0.738-0.188,1.182l0.02,0.474,0.473-0.021,0.025,0.582c0.345,0.768,0.601,1.251,1.384,2.049,1.97-0.084,1.625,1.813,1.995,2.729-0.257,0.98-0.118,1.133-1.118,1.325-1.108,0.3-1.271,0.541-2.217,1.187l-0.183,0.434c-0.497-0.217-1.078-0.448-1.517-0.049l-0.581,0.024c-0.513-0.813-2.113-0.487-2.95-0.448l-1.183,0.183c-0.793,0.034-0.945,0.571-1.955,0.428l-0.345,0.375c-0.542-0.306-1.325-0.474-1.877,0.418-1.473,0.33-1.822,0.867-2.098,2.207-0.39,0.872-1.01,2.152-1.976,2.793-1.044,0.689-1.241,1.576-2.005,2.433-1.138,0.699-2.906,2.217-3.847,3.177l-1.585,1.483c-1.301,0.891-2.059,1.561-2.788,3.142-1.039-0.788-1.073-1.162-1.885-2.659" clip-path="url(#XMLID_3_)" fill-rule="evenodd" clip-rule="evenodd" fill="#f7f619"/>
<path id="path4000" d="m33.991,76.005c0.02-6.758,2.083-15.264,6.388-21.11,1.921-2.61,4.187-4.689,6.808-6.201,6.821-3.936,14.938-3.482,22.179-1.029l0.783-1.61,3.596-0.005,6.714,15.022-4.01,1.945c-4.069-6.172-9.097-11.817-17.112-10.629-10.959,1.62-12.377,12.919-12.634,22.07-0.285,10.216,2.015,22.688,12.521,23.973,9.029,1.108,15.535-5.945,17.412-14.343l4.92,0.788c-2.349,12.477-9.151,19.584-21.184,20.034-18.062,0.67-26.416-13.266-26.381-28.905m27.799,40.636v39.906c0,5.117-4.615,5.103-7.413,5.103v3.271h26.942v-3.256c-2.797,0-7.417,0-7.422-5.117v-17.43l12.323-0.02c3.541,0.029,5.226,4.093,5.226,7.235l4.389-0.084,0.005-20.204h-4.394c0,5.073-2.261,6.945-5.295,6.945l-12.254,0.015v-18.21h15.037c2.601,0,8.216,3.068,11.658,8.965,1.345-0.71,2.694-1.414,4.039-2.118l-6.55-13.39h-43.703v3.271c2.798,0.001,7.413,0.005,7.413,5.124zm42.443,20.765c0.015-6.748,2.078-15.26,6.388-21.105,1.921-2.605,4.182-4.685,6.808-6.201,6.816-3.931,14.934-3.487,22.179-1.025l0.783-1.615h3.591l6.714,15.022-4.01,1.941c-4.068-6.167-9.092-11.812-17.106-10.63-10.959,1.616-12.377,12.925-12.634,22.071-0.285,10.221,2.01,22.687,12.521,23.973,9.023,1.108,15.535-5.94,17.412-14.343l4.921,0.788c-2.35,12.476-9.152,19.583-21.185,20.031-18.063,0.67-26.422-13.263-26.382-28.907z" clip-path="url(#XMLID_3_)" fill-rule="evenodd" clip-rule="evenodd" fill="#FFF"/>
<path id="path4002" d="m121.89,91.584-0.167,0.853-0.931,0.398-0.119,0.37-0.654,0.177-0.231,0.67c-0.882,0.364-1.453,0.848-2.404,1.163l-0.448,0.359c-1.271,0.35-0.975,0.478-1.689,1.487-0.847-0.173-2.31-0.34-3.319-1.133-2.65-1.542-3.625-2.419-5.413-3.049l-0.976-0.896-0.778-0.527-0.212-0.605-0.403-0.458-0.616-0.158c-0.714-0.615-1.236-0.241-1.596-0.088,0.113,0.979,0.024,2.733,0.818,3.861,0.68,0.96,1.989,1.531,3.073,1.827,0.743,0.168,3.9,2.315,4.556,2.837,0.985,0.311,3.753,1.325,4.552,2.034,1.581,0.542,2.802,2.68,3.442,3.601,0.222,0.798,0.631,1.626,0.694,2.429l-0.537,0.054c-0.945-0.147-1.226-0.512-1.266-1.433l-0.487-0.438-0.482-0.286c-1.271-0.069-2.152-0.236-2.473,0.138-0.217,0.257-0.178,0.759,0.187,1.715,0.271,0.561,0.872,0.808,0.783,1.605-0.196,0.67-0.088,1.143-0.557,1.133-0.35-0.01-0.502-0.128-0.625-0.956-1.197-0.704-1.862-0.591-1.971,0.217-0.024,2.487,1.857,4,1.892,5.521-0.542-0.191-0.759-0.694-1.191-0.408l-0.828,0.152-1.285-0.192c-0.571-0.492-0.798-0.887-1.123-1.576-0.508-2.206-1.271-3.379-1.99-5.31-0.759-0.65-1.389-1.507-2.31-1.882-1.35-0.227-1.833-0.649-2.995-1.398-0.813,0.207-1.222,0.147-1.778-0.502-0.654-0.084-2.63-2.399-3.512-2.778l-2.345,0.104c-1.261-0.183-2.285-0.508-3.507-0.207-0.979-0.877-1.536-0.99-3.083-1.143-0.108-0.306-0.522-0.694-0.867-0.783l0.522-1.315c0.694-1.453,0.32-2.266,0.084-3.886-0.315-0.65,0.005-0.916-0.788-1.596-0.183-0.769-0.7-2.537-1.168-2.976-1.147-0.138-1.389,0.296-2.329,0.818l-0.207,0.458,0.32,2.078c0.049,0.931,0.133,1.542-0.345,2.369l-0.217,0.808c-0.188,1.311-0.636,3.094-0.882,4.029l0.275,0.463c0.34,0.945,0.222,1.044,1.123,1.586,0.749,0.689,1.178,1.034,1.827,1.571l3.404,0.315c2.413,0.271,3.807,2.034,6.561,2.172,1.566,0.571,3.861,1.429,5.807,2.448l0.739,0.892c1.113,0.842,2.665,2,3.866,2.64,0.571,0.207,0.744,1.345,1.34,1.714,0.513,0.976,0.596,0.956,0.665,1.123,0.113,0.286,0.069,0.66,0.188,1.769,0.788,0.985,1.088,1.724,2.3,2.005l2.96,0.345,8.196-1.813c1.808,1.241,2.758,1.866,3.271,4.472,0.985,0.901,1.044,1.685,1.306,2.98l0.379,0.458c0.646,0.901,1.049,1.975,1.527,2.965l0.266,0.591,0.02,0.454c0.793,0.581,0.798,0.531,1.104,1.487l0.266,0.227,0.251,0.699c1.153,0.759,1.419,2.931,1.478,4.251,0.557-0.094,1.069,1.768,1.064,2.886,0.306,1.118,0.379,2.872,0.562,4.044,1.955,0.956,3.206,1.636,5.787,1.024,1.438-0.063,2.364-0.65,4.191-0.403l1.488-0.32c1.97,0.104,3.797,0.084,5.758,0l2.463,0.236,0.227-0.251c0.753-0.823,1.098-1.946,1.256-3.044-0.247-1.463-0.932-3.487-2.419-4.241-0.724-0.301-0.808-0.655-1.054-1.364-0.817-0.453-1.685-0.911-2.566-0.808-1.241,0.138-3.3-0.33-4.502-0.453l-0.699-0.843c-1.123-0.694-3.162-6.339-3.586-7.472-0.655-1.35-1.408-3.458-1.882-4.936-0.571-1.591-1.054-3.601-1.344-4.363-1.759-4.685-2.646-6.275-3.429-8.546-0.557-1.532-1.497-4.911-2.536-7.044l0.157-2.118c0.256-0.782,1.497-3.127,2.039-3.719l0.212-0.965-0.275-0.562c0.359-0.936,0.876-1.714,0.832-2.719l0.178-1.404,0.162-1.403-0.202-2.227,0.409-0.847-0.099-2.227,0.473-0.128c0.518-1.478,0.887-2.143,0.887-3.015,0.005-1.931-0.364-3.921-0.138-5.926,0.369-3.265-0.725-6.428-0.158-9.812l-0.28-1.501c0.295-2.335,0.138-4.675-0.084-7.014-0.872-4.453-2.01-6.615-2.876-9.62-0.552-0.743-0.72-1.324-1.03-2.182-0.921-0.532-1.305-1.635-2.098-2.01-0.911-0.552-1.374-3.531-1.704-4.714-1.586-3.107-2.394-4.713-4.783-7.304-1.458-1.951-1.314-1.877-3.975-2.399-1.212-0.468-2.01-0.714-3.098-1.502l-1.399-0.059c-1.803-0.32-3.157-1.05-4.777-1.783-0.793,0.118-3.778,0.429-4.285,1.005l-1.443-0.65-0.945-0.537-0.932,0.518-1.63-0.074c-2.764,1.354-4.177,5.581-6.226,8.151-1.173,1.024-1.966,1.744-2.773,2.931l-1.044-0.088-0.754,0.241c-2.463,0.689-4.251,1.931-5.196,3.187l0.301,1.473c0.345,1.28,0.108,3.763,1.285,3.979-0.566,2.542-0.256,4.384,2.275,5.28l0.626,0.675c-0.231,2.306-1.694,5.9-3.453,7.187l-0.448,0.601c-0.738,3.261-0.748,6.798-1.768,9.92l0.049,0.606,0.188,0.517,1.813-0.192,0.615-0.054c1.039,0.985,0.956,1.596,1.138,3.015l0.458,0.463,0.922-0.315,0.625-0.354,0.641-0.709,0.217-0.231,0.832-0.035,0.231,0.212,0.478,0.113,1.178,0.291-0.02-0.34,0.685-0.39,1.645,0.153,0.231,0.246c0.66,1.345,2.104,1.733,3.394,2.408,0.783,0.359,1.463,0.773,2.276,1.074,0.324,0.892,0.408,0.615,0.989,1.147l0.276,0.911,0.246,0.586,0.502,0.552c0.301,1.926-0.073,3.753,0.552,5.615,0.227,0.66,0.532,1.049,1.522,1.33l0.482,0.798c0.301,1.162-0.104,2.817,0.744,3.477,0.246,0.636,0.542,1.231,0.798,1.857l0.468,0.547c1.182,0.374,2.892,0.896,4.128,0.517l0.201-0.827,1.395-0.162,0.015,0.443c1.005,0.783,0.906,1.015,1.502,2.029l0.089,2.009,0.384,0.917,0.03,0.699,0.261,0.241c1.049,0.128,2.222,0.192,3.521,0.192,0.488-0.178,1.251-0.65,1.227-1.128l0.655-1.084c1.566-0.301,1.039-0.621,2.068-1.015l0.674,0.05" clip-path="url(#XMLID_3_)" fill-rule="evenodd" clip-rule="evenodd" fill="#f7f619"/>
<path id="path4004" d="m145.35,139.79-0.719-0.069-0.183-0.413c-0.984-0.547-2.576-0.139-3.314,0.67l-1.764-0.148,0.315-0.965,0.458-0.375c-0.517-1.068-0.66-1.803-1.856-2.374l-0.537-1.389c-1.089-0.354-2.241-0.207-3.275,0.275l-0.364-0.221-0.335,0.251-0.247-0.227-0.073-1.754c-0.937-3.211-2.143-5.368-2.764-7.019l-0.63-0.803c-0.448-1.557-1.872-2.788-2.424-4.808-0.507-0.906-0.354-1.251-1.261-1.936-0.513-0.714-0.822-1.842-1.172-2.655l-0.395-1.162c0.222-0.847,0.581-2.271,1.261-0.532l1.896,1.438,0.961-0.094,0.083-0.892,0.064-1.01c-0.152-3.462-3.398-8.525-4.369-12.249l1.94-0.778,0.611,0.67,0.015,0.354c1.256,4.798,2.305,6.245,4.674,10.688l0.276,0.463,0.251,0.689,0.241,0.33,0.345,2.094,0.246,0.571c0.464,1.556,0.98,3.078,1.483,4.62l0.295,1.044,0.479,0.335c0.403,1.044,0.743,2.039,1.083,3.107,0.271,1.246,0.552,2.306,0.971,3.497,0.965,1.158,1.251,2.487,2.143,3.759,0.955,0.689,1.861,1.059,2.093,2.246,1.492,1.024,3.32,1.536,4.817,0.266l1.507-0.188,0.365,0.463,0.709-0.034c0.354,1.024,0.877,1.694,1.29,2.625,0.689,2.118-0.099,1.853-2.147,1.848-1.364,0.324-1.851,0.575-3.043-0.208m-8.181,0.059c-0.173-0.34-0.113-1.29-0.286-1.625-0.581-0.562-2.068-0.641-2.413-0.419-0.06,0.36,0.315,1.473,0.434,1.808,0.644,0.271,1.925,0.349,2.265,0.236zm-20.874-23.904,0.093-1.546,1.197-3.527,0.971,0.434,0.029,0.694,0.453,0.207,0.641,0.562,0.231,0.71,0.793,0.108,0.29-2.557,1.482,1.187,0.917,0.689-0.566,0.764-0.228,0.246-1.275,0.941-1.866,0.448-2.015,0.596-1.147,0.044zm5.028-9.549c-0.054,0.738,0.192,1.187,0.685,1.675,0.665,0.217,1.478,0.591,2.143,0.374,1.108-3.049-2.572-2.651-2.828-2.049zm3.17-15.902c1.231-2.152,2.143-4.491,2.966-7.358,0.191-0.398,0.3-0.566,0.64-0.497,0.129,2.798,0.375,5.462-1.989,8.151-0.798,0.487-1.163,0.803-1.916,0.853-0.912,0.062-0.046-0.627,0.299-1.149zm-21.19-49.91c-0.157-0.995-1.054-2.099-0.68-2.995,1.35-0.487,2.02-0.473,2.503,1.173,0.113,0.581,0.335,1.143,0.33,1.738-0.729,1.133-1.478,0.429-2.153,0.084zm-1.674-4.6c-0.35-0.064-1.005-0.064-1.557-0.306-1.271-0.552-1.808-0.591-2.059-1.753-0.419-1.448,0.285-1.665,1.389-2.138,0.591,0.128,0.689-0.099,1.191-0.434,0.587-0.024,1.448-0.256,1.882,0.143-0.118,0.434-0.197,0.665-0.118,0.901,0.128,0.364,0.202,1.044,0.212,1.39,0.02,0.541,0.379,1.23,0.089,1.926-0.344,0.093-0.684,0.182-1.029,0.271zm2.522-3.871c-0.803-1.173-0.463-1.557,0.024-1.961,0.901-0.34,1.404-0.054,2.231,0.118,0.236,0.163,0.694,1.271,0.32,1.734-0.93,0.606-1.999,0.369-2.575,0.109zm7.063,41.423c-0.932-1.699-0.901-3.093-0.404-4.601,0.162-0.492,0.877-0.434,1.552-0.463l0.729-0.414c0.966-0.34,2.424-0.881,2.971,0.084,0.29,0.518,0.206,1.05-0.197,2.581l0.275,0.113,0.262,0.374c1.251,0.404,1.586-0.408,2.452-0.118l0.38,0.69c0.295,0.847,0.227,1.408-0.055,1.792-0.605,0.848-2.201,0.867-2.979,1.37-2.573-0.098-4.243-0.975-4.986-1.408zm1.488-16.826c0.172,0.345,0.354,0.689,0.526,1.034,0.188,0.399,0.228,0.985,0.079,1.749l0.37,3.019,0.305,1.518-0.172,1.541c-0.587,1.626-1.896,1.606-3.02,0.715l-1.104-1.133c-1.113-0.66-1.202-1.143-1.398-2.404-0.05-1.044-2.074-2.561-2.832-3.162-0.153-0.413-0.242-0.675-0.508-1.024-0.581-0.3-1.01-0.241-1.285,0.178,0.241,1.118,0.576,2.236,0.625,3.379l1.434,0.517c1.143,1.665,1.473,3.581,1.024,5-0.335,1.261-1.197,1.448-2.911,0.128-1.217-0.754-1.743-2.872-2.034-3.675l-1.783-0.62c-1.473-0.734-2.438-1.616-3.206-0.916-0.069,0.748-0.01,1.586-0.379,2.246-0.848,2.521,3.137,3.708,4.871,4.235,0.586,0.448,1.217,0.783,1.842,1.641-0.271,0.861,0.611,1.596,1.359,1.847l0.024,0.591,0.715,0.33,0.261,0.212,0.926,0.094,0.138,0.438c1.267,1.138,1,1.369,2.867,1.29,1.936,1.034,3.078,2.197,3.94,4.394l0.202,1.862c0.709,0.379,1.098,0.285,1.763,0.147l-0.266-0.906c-0.434-2.049,0.266-2.222,1.783-1.719l0.984,0.655,0.375,0.788,0.61,0.689,0.438-0.838c0.271-0.822,0.571-0.995,1.212-1.571,1.123-0.438,1.246-0.803,1.552-1.955l0.551-0.945,0.192-0.71c0.463-1.015,1.06-1.753,1.301-2.645,1.039,0.497,2.561,1.063,3.669,1.015,0.463,1.187,0.542,1.482,0.606,2.906l0.699-0.271c-0.197-1.861-0.207-5.546-0.601-5.595-1.089-0.207-2.621-0.685-2.906-2.207-0.581-1.207-1.079-2.945-1.482-4.28l-0.424-1.512c-0.729-1.508-0.345-2.995-0.68-4.66-0.665-2.808-0.503-3.023,2.201-3.487,0.113-0.039,0.231-0.088,0.35-0.133,0.055-0.502,0.104-1.005,0.158-1.512,0.35-1.68,0.261-2.847-0.419-4.443-0.275,0.055-0.547,0.108-0.822,0.158-0.241,0.261-0.217,0.231-0.202,0.591-1.374,0.562-2.463,0.395-3.659-0.778-0.084-0.068-0.168-0.143-0.247-0.217-1.433-0.191-1.601-0.424-2.827-1.039-0.487-0.217-0.97-0.429-1.458-0.646-0.059-1.359-1.64-1.931-2.808-2.344-0.147-0.228-0.295-0.449-0.442-0.67l-0.06-0.602c-0.06-1.345-0.487-1.073-1.704-1.605-0.896-0.709-1.562-0.877-1.793-1.301-0.798-1.447-0.591-2.177-0.099-2.492,0.453-0.285,6.541-0.227,7.753-0.217l2.275,0.315c0.138-0.552-0.113-0.975-0.754-1.271-0.763-1.123-0.541-1.296-1.852-2.152-3.478,0.152-4.329-0.813-6.565-2.596-1.104-0.813-0.503-1.478-0.359-2.724l0.241-0.231-0.025-0.582,0.686-0.384,1.039-0.285-0.02-0.582c-0.572-0.314-1.301-0.531-1.896-0.138-0.961,0.379-1.877,0.827-2.887,1.044l-1.97,0.207-0.217,0.473-1.641,0.188-0.374-0.552c-0.734-0.413-1.552-0.65-2.157-1.212l-0.257-0.689-0.931,0.163c-0.492,1.104-2.211,0.64-2.133,2.201l0.271,0.808,0.256,0.69c-0.133,1.285-0.005,2.235-1.029,2.96l-1.508,0.675-0.206,0.354-0.217,0.808-0.217,0.68c-1.192,1.044-1.769,0.788-2.769,0.404l-0.738-0.916-0.197,0.615-0.222,0.709c0.049,1.188-1.576,2.468-2.547,3.039-1.3,0.527-1.295,1.045-1.251,2.02l0.725,0.05c0.32-0.168,0.788-0.557,1.418-0.689,1.207-0.906,1.045-0.867,1.911-1.276,0.793-0.138,2.699,0.276,3.424,0.788l1.423,0.532,1.064-0.468c0.842-0.173,1.182-0.325,1.64,0.453,0.276,1.64,0.532,3.447,1.039,4.994,0.557,1.212,1.286,2.217,2.188,2.764,0.256,0.428,0.335,0.492,0.172,0.97-0.384,1.133-1.015,1.138-2.122,1.778l-1.961,0.665c-0.217,0.099-1.261,1.113-2.236,1.3-0.67,0.129-1.369,0.139-2.049,0.139-0.99,0-0.985-1.488-1.029-2.482l-0.694,0.029-0.104,0.345,0.251,0.837,0.118,0.99-0.143,0.725-0.468,0.152c-0.241,0.724-0.267,1.369-0.236,2.133l0.709-0.06,1.152,0.089c0.557,0.015,0.488,0.173,0.616,0.773,0.271,0.729,0.201,1.094,0.768,1.61l0.281,1.385-0.207,2.103,1.074-0.029-0.429-1.335c-0.074-2.408-0.547-4.133,0.542-4.772,1.231-0.035,2.482,0.128,3.688-0.108,0.611-0.896,1.311-2.492,1.689-3.625l0.345-0.236c0.927,0.093,1.231,0.059,2.227-0.301,0.532-1.152,1.064-2.202,1.458-3.434l0.675-0.054,1.089,0.039-0.246-0.468-0.089-1.709c0.542-1.246,1.689-4.083,2.901-4.994,1.015,0.482,1.526,1.285,2.467,1.551,0.05,0.237,0.099,0.474,0.148,0.71,0.35,0.729,0.704,1.468,1.054,2.196,0.02,1.034,0.084,0.828,0.976,1.33,0.955,0.197,1.772,0.513,2.689,0.837,0.216,0.217,0.433,0.443,0.649,0.67,0.823,0.547,1.178,0.828,1.822,1.557,1.005,0.434,2.749,2.527,3.084,3.492,0.266,1.532,0.468,3.089-2.212,2.911-0.083-0.118-0.167-0.236-0.251-0.35-1.325-0.641-2.044-1.188-2.769-1.754-0.753-0.665-1.004-0.822-1.926-1.196,0.311,0.413,0.552,0.605,0.976,0.882,0.281,0.389,0.591,0.738,0.867,1.138,0.547,0.871,1.275,1.945,2.201,2.374,0.183,0.231,0.522,0.246,0.646,0.788,0.202,0.463,0.35,0.906,0.507,1.389,0.577,0.985,0.212,3.024,0.183,4.206-0.217,1.636,0.178,3.034-0.02,4.685-0.197,0.35-0.424,0.605-0.665,0.743l-0.478,0.021-0.971-0.788-0.492-0.335-0.256-0.808c-0.488-1.636-0.286-2.453-1.463-4.162-1.409-1.04-2.315-2.646-1.247-4.379-0.059-1.359-0.586-1.513-1.689-2.335-0.31-0.473-0.62-0.945-0.926-1.419-0.162-0.068-0.325-0.147-0.487-0.216,0.054-0.434,0.113-0.867,0.167-1.301,0.197-0.502,0.222-0.646,0.197-1.182-0.113,0.049-0.231,0.098-0.35,0.147l-2.733-0.715c0.295,1.197,0.547,2,1.408,3,0.163,0.143,0.33,0.286,0.493,0.424,0.912,0.417,1.301,0.732,1.824,1.574zm8.501-12.816c-0.177-0.847-0.526-1.305-1.227-1.403-0.778-0.118-0.325-1.39,0.262-1.739,1.068-0.024,1.965,0.276,2.729,0.857l0.138,0.709c-0.123,0.976-0.32,1.571-0.596,1.788-0.434,0.231-0.873,0.163-1.306-0.212zm-4.438-2.138c-0.945,0.246-1.458-0.438-1.724-0.906-0.113-0.719-0.005-0.995,0.236-1.083,0.856-0.315,1.871-0.03,2.29,0.659,0.498,0.819-0.053,1.138-0.802,1.33zm10.54,14.491c-0.039-0.335,0.626-0.759,1.024-0.848,1.414,0.345,1.587,2.384,0.443,3.049-1.373,0.065-1.275-0.595-1.467-2.201zm-28.597,4.108c0.108-0.571-0.05-0.729,0.162-0.906,0.094-0.089,0.227-0.748,0.463-0.861,0.532-0.286,1.67-0.217,1.921-0.129,0.434,0.424,0.104,1.641-0.187,2.152-0.905,0.138-1.527-0.044-2.359-0.256zm21.761-29.986c-0.257-0.591-0.409-0.748-1.089-0.788-1.266-0.345-1.655-0.985-1.808-1.196,0.665-0.35,1.532-0.37,2.118,0.133,0.685,0.591,0.936,1.113,1.123,1.955-0.112-0.035-0.226-0.069-0.344-0.104zm4.857,13.559-0.158-0.931c0.582-0.61,1.527-0.601,2.636-0.305,0.856,2.399-0.627,1.917-2.478,1.236z" clip-path="url(#XMLID_3_)" fill-rule="evenodd" clip-rule="evenodd" fill="#200e7d"/>
</g>
</g>
</g>
</svg>
